<?xml version="1.0" standalone="no"?>
<!DOCTYPE svg PUBLIC "-//W3C//DTD SVG 20010904//EN"
 "http://www.w3.org/TR/2001/REC-SVG-20010904/DTD/svg10.dtd">
<svg version="1.0" xmlns="http://www.w3.org/2000/svg"
 width="1000.000000pt" height="1000.000000pt" viewBox="0 0 1000.000000 1000.000000"
 preserveAspectRatio="xMidYMid meet">
<metadata>
Created by potrace 1.14, written by Peter Selinger 2001-2017
</metadata>
<g transform="translate(0.000000,1000.000000) scale(0.100000,-0.100000)"
fill="#000000" stroke="none">
<path d="M5396 7334 c-170 -24 -310 -45 -311 -46 -6 -8 -804 -4692 -800 -4696
6 -7 628 78 636 86 3 4 185 1053 403 2332 219 1279 400 2335 403 2348 3 15 1
22 -8 21 -8 -1 -153 -21 -323 -45z"/>
<path d="M7040 6433 c0 -32 118 -874 123 -879 5 -5 1107 -104 1156 -104 13 0
22 -2 20 -5 -3 -2 -251 -98 -552 -213 -301 -115 -549 -211 -551 -213 -2 -2 25
-204 59 -449 49 -358 64 -444 76 -442 15 3 2019 982 2031 992 9 7 -111 901
-122 913 -5 6 -2211 417 -2237 417 -2 0 -3 -8 -3 -17z"/>
<path d="M1830 5380 c-558 -275 -1018 -500 -1021 -502 -7 -3 117 -907 125
-915 7 -7 2236 -416 2240 -412 2 2 -24 204 -58 449 l-61 445 -45 7 c-25 3
-279 27 -565 53 -286 25 -531 48 -545 51 -18 4 126 62 520 211 300 112 548
208 553 212 4 4 -20 203 -53 442 -33 239 -60 440 -60 447 0 6 -3 12 -7 11 -5
0 -465 -225 -1023 -499z"/>
</g>
</svg>
